<?xml version="1.0" encoding="utf-8"?>
<!-- Generator: Adobe Illustrator 28.2.0, SVG Export Plug-In . SVG Version: 6.00 Build 0)  -->
<svg version="1.1" id="Слой_1" xmlns="http://www.w3.org/2000/svg" xmlns:xlink="http://www.w3.org/1999/xlink" x="0px" y="0px"
	 viewBox="0 0 172 81" style="enable-background:new 0 0 172 81;" xml:space="preserve">
<style type="text/css">
	.st0{fill:#FFFFFF;}
	.st1{fill:none;stroke:#FFFFFF;stroke-width:5;stroke-miterlimit:10;}
</style>
<g>
	<path class="st0" d="M21.38,46.85v12.74c0,0.93-0.78,1.67-1.71,1.67s-1.71-0.75-1.71-1.67V51l-2.57,3.93
		c-0.27,0.51-0.68,0.78-1.24,0.78c-0.56,0-0.98-0.25-1.24-0.76l-2.57-3.98v8.62c0,0.93-0.76,1.67-1.71,1.67s-1.71-0.75-1.71-1.67
		V46.85c0-1.04,0.78-1.69,1.59-1.69c1,0,1.56,0.22,2.07,1.08l3.57,5.27l3.55-5.27c0.27-0.45,0.61-0.75,0.81-0.88
		c0.12-0.07,0.27-0.12,0.45-0.15c0.38-0.07,0.33-0.05,0.71-0.05C20.6,45.16,21.38,45.92,21.38,46.85z"/>
	<path class="st0" d="M36.92,45.71c0.31,0.36,0.48,0.78,0.48,1.24v12.54c0,0.98-0.76,1.74-1.71,1.74s-1.71-0.76-1.71-1.74v-7.93
		l-6.58,9.01c-0.33,0.45-0.83,0.66-1.51,0.66c-0.85,0-1.48-0.61-1.48-1.54V46.87c0-0.95,0.73-1.71,1.66-1.71
		c0.98,0,1.74,0.76,1.74,1.71v7.76l6.45-8.82c0.33-0.43,0.83-0.65,1.48-0.65C36.21,45.16,36.6,45.34,36.92,45.71z"/>
	<path class="st0" d="M53.8,57.76c0.98,0,1.77,0.78,1.77,1.78v3.32c0,0.93-0.75,1.71-1.68,1.71c-0.48,0-0.9-0.18-1.24-0.53
		c-0.35-0.35-0.51-0.78-0.51-1.26v-1.66h-9.79c-1.01,0-1.84-0.83-1.84-1.89V47.02c0-0.51,0.17-0.95,0.48-1.29
		c0.31-0.37,0.71-0.55,1.16-0.55c0.48,0,0.9,0.18,1.24,0.55c0.35,0.35,0.53,0.78,0.53,1.29v10.76h5.84V47.02
		c0-0.51,0.18-0.95,0.53-1.29c0.35-0.37,0.78-0.55,1.26-0.55c0.45,0,0.85,0.18,1.16,0.55c0.31,0.35,0.48,0.78,0.48,1.29v10.75H53.8z
		"/>
	<path class="st0" d="M68.19,46.83c1.24,1.31,1.88,2.8,1.88,4.51v1.79c0,0.8-0.63,1.23-1.54,1.23h-8.18v0.76
		c0,0.83,0.3,1.58,0.88,2.22c0.6,0.65,1.36,0.96,2.27,0.96c1.34,0,2.39-0.65,2.85-1.33c0.37-0.28,0.76-0.41,1.21-0.41
		c1.11,0,1.48,0.76,1.46,1.56c-0.05,0.51-0.32,1.03-0.83,1.54c-0.51,0.51-1.19,0.96-2.04,1.31c-0.85,0.35-1.72,0.53-2.62,0.53
		c-1.24,0-2.39-0.3-3.4-0.9c-2.01-1.21-3.1-3.2-3.1-5.26v-4.2c0-1.71,0.61-3.17,1.84-4.41c1.23-1.24,2.79-1.87,4.66-1.87
		S66.94,45.52,68.19,46.83z M60.34,51.71h6.39v-0.68c0-0.88-0.32-1.61-0.95-2.22c-0.61-0.61-1.38-0.93-2.26-0.93
		s-1.64,0.31-2.26,0.93c-0.61,0.61-0.93,1.36-0.93,2.24V51.71z"/>
	<path class="st0" d="M74.18,55.28c0.2-1.09,0.3-3.18,0.28-6.27v-1.84c0-0.51,0.18-0.95,0.53-1.33c0.37-0.38,0.81-0.56,1.34-0.56
		h7.46c0.55,0,1,0.2,1.31,0.58c0.32,0.38,0.48,0.81,0.48,1.28v12.31c0,1.01-0.8,1.79-1.79,1.79c-1.01,0-1.64-0.73-1.64-1.79V48.59
		h-4.31c0.02,3.73-0.18,6.5-0.6,8.31c-0.4,1.81-1.26,3.1-2.57,3.92c-0.42,0.28-0.86,0.41-1.34,0.41c-1.67,0.07-2.22-1.89-0.9-2.87
		C73.34,57.83,73.92,56.8,74.18,55.28z"/>
	<path class="st0" d="M98.48,45.26c0.95,0,1.73,0.78,1.73,1.71v12.56c0,0.95-0.78,1.71-1.73,1.71c-0.93,0-1.72-0.76-1.72-1.71v-2.07
		h-2.24c-0.22,0-0.37,0-0.48-0.02l-2.72,3.38c-0.3,0.35-0.68,0.51-1.16,0.51c-1.41,0-2.36-1.66-1.24-2.99l1.63-1.99
		c-1.39-0.98-2.09-2.41-2.09-4.31v-1.06c0-1.84,0.58-3.27,1.72-4.25c1.16-0.98,2.62-1.48,4.36-1.48H98.48z M96.75,54.32v-5.61h-2.29
		c-1.67,0-2.55,0.88-2.55,2.26v1.01c0,1.56,0.85,2.34,2.55,2.34H96.75z"/>
	<path class="st0" d="M115.95,55.26c0,1.72-0.63,3.2-1.91,4.43c-1.28,1.23-2.82,1.84-4.63,1.84c-1.31,0-2.32-0.45-3.07-1.34v5.14
		c0,0.98-0.75,1.71-1.73,1.71s-1.71-0.73-1.71-1.71V51.11c0-1.71,0.63-3.18,1.89-4.4c1.26-1.23,2.8-1.84,4.61-1.84
		s3.35,0.61,4.63,1.84c1.28,1.21,1.91,2.69,1.91,4.4V55.26z M112.52,51.23c0-0.85-0.3-1.58-0.9-2.16c-0.6-0.58-1.33-0.88-2.21-0.88
		c-0.86,0-1.59,0.3-2.19,0.88c-0.58,0.58-0.88,1.31-0.88,2.16v3.93c0,0.85,0.3,1.58,0.88,2.16c0.6,0.58,1.33,0.88,2.19,0.88
		c0.88,0,1.61-0.3,2.21-0.88c0.6-0.58,0.9-1.31,0.9-2.16V51.23z"/>
	<path class="st0" d="M131.05,45.71c0.31,0.36,0.48,0.78,0.48,1.24v12.54c0,0.98-0.76,1.74-1.71,1.74s-1.71-0.76-1.71-1.74v-7.93
		l-6.58,9.01c-0.33,0.45-0.83,0.66-1.51,0.66c-0.85,0-1.48-0.61-1.48-1.54V46.87c0-0.95,0.73-1.71,1.66-1.71
		c0.98,0,1.74,0.76,1.74,1.71v7.76l6.45-8.82c0.33-0.43,0.83-0.65,1.48-0.65C130.34,45.16,130.74,45.34,131.05,45.71z"/>
	<path class="st0" d="M146.57,45.99c0.35,0.53,0.4,1.13,0.13,1.79l-5.01,12.41l-2.06,5.41c-0.32,0.81-0.86,1.23-1.66,1.21
		c-0.58-0.02-1.04-0.25-1.39-0.73c-0.35-0.46-0.4-1.04-0.15-1.73l1.76-4.58l-4.84-12.01c-0.25-0.65-0.2-1.24,0.15-1.78
		c0.36-0.55,0.85-0.81,1.43-0.81c0.75-0.02,1.31,0.38,1.53,1.09l3.58,9.89l3.57-9.89c0.25-0.75,0.75-1.11,1.49-1.09
		C145.73,45.19,146.22,45.46,146.57,45.99z"/>
	<path class="st0" d="M162.89,46.85v12.74c0,0.93-0.78,1.67-1.71,1.67c-0.93,0-1.71-0.75-1.71-1.67V51l-2.57,3.93
		c-0.27,0.51-0.68,0.78-1.24,0.78c-0.56,0-0.98-0.25-1.24-0.76l-2.57-3.98v8.62c0,0.93-0.76,1.67-1.71,1.67s-1.71-0.75-1.71-1.67
		V46.85c0-1.04,0.78-1.69,1.59-1.69c1,0,1.56,0.22,2.07,1.08l3.57,5.27l3.55-5.27c0.27-0.45,0.61-0.75,0.81-0.88
		c0.12-0.07,0.26-0.12,0.45-0.15c0.38-0.07,0.33-0.05,0.71-0.05C162.11,45.16,162.89,45.92,162.89,46.85z"/>
</g>
<path class="st1" d="M84.52,25.3c1.02,10.88-60.93,10.88-59.91,0C23.6,14.42,85.55,14.42,84.52,25.3z"/>
<path class="st1" d="M145.2,25.21c1.02,10.88-60.93,10.88-59.91,0C84.28,14.34,146.22,14.33,145.2,25.21z"/>
<path class="st0" d="M59.51,25.19c0.25,12.19-25.24,12.19-24.99,0C34.27,13,59.76,13,59.51,25.19z"/>
<path class="st0" d="M120.19,25.1c0.25,12.19-25.24,12.19-24.99,0C94.95,12.92,120.43,12.92,120.19,25.1z"/>
</svg>
